<?xml version="1.0" encoding="UTF-8"?><svg xmlns="http://www.w3.org/2000/svg" xmlns:xlink="http://www.w3.org/1999/xlink" viewBox="0 0 761.68 205.54"><defs><style>.e{fill:#8f94a5;}.f{fill:url(#d);}.g{fill:#0b1637;}</style><linearGradient id="d" x1="26.28" y1="6.32" x2="125.36" y2="203.45" gradientTransform="matrix(1, 0, 0, 1, 0, 0)" gradientUnits="userSpaceOnUse"><stop offset="0" stop-color="#c31432"/><stop offset=".21" stop-color="#bd1330"/><stop offset=".48" stop-color="#ad112d"/><stop offset=".78" stop-color="#920e28"/><stop offset="1" stop-color="#7a0b23"/></linearGradient></defs><g id="a"/><g id="b"><g id="c"><g><g><path class="g" d="M317.22,104.85l-30.43-86.04h18.71l22.82,72.83,23.19-72.83h18.33l-31.05,86.04h-21.57Z"/><path class="g" d="M372.07,104.85V18.8h17.21V104.85h-17.21Z"/><path class="g" d="M461,44.12h-17.58c-1-8.73-5.86-14.22-14.84-14.22-6.86,0-12.1,3.24-12.1,10.23s4.61,10.85,18.33,14.09c18.95,4.36,27.43,13.09,27.43,26.94,0,16.21-14.84,25.44-31.8,25.44-20.58,0-34.04-9.1-35.67-27.19h17.58c1.87,9.48,9.1,14.34,17.83,14.34,7.86,0,14.09-4.24,14.09-10.85,0-7.23-4.49-11.47-17.21-14.47-17.58-4.24-28.68-10.35-28.68-26.19s14.34-25.19,30.8-25.19c20.58,0,29.93,11.72,31.8,27.06Z"/><path class="g" d="M543.8,104.85h-17.08v-35.29h-40.28v35.29h-17.21V18.8h17.21V55.84h40.28V18.8h17.08V104.85Z"/><path class="g" d="M577.47,104.85l-30.43-86.04h18.71l22.82,72.83,23.19-72.83h18.33l-31.05,86.04h-21.57Z"/><path class="g" d="M642.07,78.91l-8.6,25.94h-18.33l31.05-86.04h21.57l30.43,86.04h-18.71l-8.48-25.94h-28.93Zm4.36-13.59h20.2l-9.98-31.8-10.23,31.8Z"/><path class="g" d="M760.44,44.12h-17.58c-1-8.73-5.86-14.22-14.84-14.22-6.86,0-12.1,3.24-12.1,10.23s4.61,10.85,18.33,14.09c18.95,4.36,27.43,13.09,27.43,26.94,0,16.21-14.84,25.44-31.8,25.44-20.58,0-34.04-9.1-35.67-27.19h17.58c1.87,9.48,9.1,14.34,17.83,14.34,7.86,0,14.09-4.24,14.09-10.85,0-7.23-4.49-11.47-17.21-14.47-17.58-4.24-28.68-10.35-28.68-26.19s14.34-25.19,30.8-25.19c20.58,0,29.93,11.72,31.8,27.06Z"/></g><g><path class="e" d="M376.31,136.21c-2.11-1.53-5.06-2.58-9.01-3.21-3.75-.6-8.74-.91-14.83-.91h-42.84v64.72h10.54v-23.86h32.05c6.1,0,11.11-.34,14.88-1.01,3.96-.7,6.93-1.81,9.08-3.37,2.21-1.6,3.72-3.74,4.49-6.36,.72-2.44,1.08-5.43,1.08-8.88v-1.61c0-3.6-.36-6.68-1.06-9.15-.76-2.65-2.24-4.79-4.39-6.35Zm-56.13,5.38h30.8c4.75,0,8.59,.13,11.4,.38,2.67,.24,4.67,.7,5.95,1.39,1.13,.61,1.86,1.47,2.23,2.65,.44,1.39,.66,3.31,.66,5.7v1.61c0,2.24-.22,4.07-.66,5.44-.38,1.18-1.11,2.07-2.25,2.71-1.28,.72-3.28,1.23-5.95,1.52-2.82,.3-6.64,.45-11.38,.45h-30.8v-21.86Z"/><path class="e" d="M464.4,140.06c-1.44-2.56-3.44-4.55-5.93-5.9-2.41-1.31-5.46-2.22-9.06-2.68-3.49-.45-7.72-.68-12.59-.68h-16.24c-4.87,0-9.11,.23-12.59,.68-3.6,.46-6.64,1.37-9.06,2.68-2.49,1.36-4.49,3.34-5.93,5.9-1.4,2.48-2.39,5.7-2.95,9.58-.54,3.77-.82,8.48-.82,14v1.61c0,6.7,.45,12.24,1.34,16.45,.93,4.39,2.6,7.82,4.97,10.21,2.38,2.39,5.69,4.05,9.84,4.92,3.97,.84,9.09,1.26,15.2,1.26h16.24c6.11,0,11.23-.42,15.2-1.26,4.15-.87,7.46-2.53,9.84-4.92,2.37-2.39,4.05-5.82,4.97-10.21,.89-4.21,1.34-9.75,1.34-16.45v-1.61c0-5.52-.28-10.23-.82-14-.56-3.88-1.55-7.1-2.95-9.58Zm-27.58,48.54h-16.24c-3.78,0-7-.13-9.57-.4-2.44-.25-4.42-.78-5.91-1.57-1.4-.75-2.44-1.87-3.19-3.41-.8-1.65-1.36-3.92-1.66-6.75-.32-2.94-.48-6.72-.48-11.22v-1.61c0-4.66,.16-8.54,.48-11.54,.3-2.88,.86-5.17,1.66-6.78,.74-1.5,1.77-2.56,3.15-3.25,1.49-.74,3.48-1.22,5.93-1.43,2.58-.22,5.8-.34,9.59-.34h16.24c3.79,0,7.02,.11,9.59,.34,2.45,.21,4.44,.69,5.93,1.43,1.38,.69,2.41,1.75,3.15,3.25,.8,1.62,1.35,3.9,1.66,6.78,.32,3,.48,6.89,.48,11.54v1.61c0,4.49-.16,8.27-.48,11.22-.3,2.83-.86,5.11-1.66,6.75-.75,1.54-1.79,2.66-3.19,3.41-1.48,.79-3.47,1.32-5.91,1.57-2.57,.26-5.79,.4-9.57,.4Z"/><polygon class="e" points="568.65 185.39 544.43 132.1 533.59 132.1 509.31 185.53 483.54 132.1 471.5 132.1 503.31 196.81 515.41 196.81 539.01 144.68 562.61 196.81 574.74 196.81 603.86 132.1 591.86 132.1 568.65 185.39"/><polygon class="e" points="622.42 168.44 673.25 168.44 673.25 159.18 622.42 159.18 622.42 141.35 675.47 141.35 675.47 132.1 611.88 132.1 611.88 196.81 676.6 196.81 676.6 187.56 622.42 187.56 622.42 168.44"/><path class="e" d="M756.11,161.53c.81-2.46,1.22-5.4,1.22-8.76v-1.61c0-3.61-.36-6.66-1.06-9.06-.76-2.59-2.25-4.66-4.42-6.16-2.11-1.46-5.05-2.44-9-3.01-3.75-.55-8.73-.82-14.81-.82h-42.84v64.72h10.54v-25.03h35.82c.28,0,.57,0,.84,0l13.16,25.04h10.91l-13.63-25.96c3.55-.65,6.27-1.62,8.3-2.95,2.44-1.61,4.11-3.75,4.97-6.37Zm-60.37-19.94h30.8c4.75,0,8.59,.1,11.43,.3,2.68,.19,4.7,.6,5.98,1.22,1.1,.53,1.81,1.33,2.18,2.44,.43,1.33,.66,3.22,.66,5.61v1.61c0,2.13-.16,3.88-.48,5.19-.26,1.06-.84,1.87-1.78,2.45-1.07,.67-2.84,1.15-5.27,1.43-2.58,.3-6.18,.45-10.7,.45h-32.82v-20.69Z"/></g><g><path class="g" d="M146.63,5.42l-13.35,29.5-30.73,65.77c-5.07-9.66-9.53-18.12-13.41-25.54-.06-.35,0-.72,.15-1.06l5.56-11.91,6.23,6.75L129.43,6.37l17.2-.95Z"/><path class="g" d="M179.77,3.62l-59.25,128.1c-3.46-6.6-7.01-13.36-10.56-20.13-1.03-1.97-2.04-3.89-3.03-5.78l5.81-12.42,6.13,6.2L162.18,4.58l17.59-.96Z"/><path class="g" d="M212.73,1.91l-75.44,162.63c-4.16-7.93-8.77-16.69-13.57-25.85h0l5.77-12.35,6.63,6.96L194.91,3.38l17.82-1.47Z"/><path class="g" d="M245.74,0l-42.03,91.25-48.99,104.72c-2.89-5.52-7.67-14.63-13.58-25.87l5.99-12.79,6.18,6.9L225.89,1.08l19.85-1.08Z"/><path class="g" d="M114.09,7.21l-28.76,61.51c-5.07-9.66-9.52-18.12-13.41-25.54-.06-.35,.01-.72,.15-1.06l5.56-11.91,6.98,8.45,13.7-30.61,15.77-.85Z"/><path class="f" d="M45.24,7.85L0,4.8,104.73,203.61c.54,1.17,1.81,1.93,3.2,1.93l35.67-.02h3.65c.13,0,.27,0,.4,0,1.36-.11,2.6-.78,3.35-1.79-1.97-3.76-97.5-180.25-105.77-195.86Z"/></g></g></g></g></svg>